<?xml version="1.0" encoding="UTF-8"?>
<!DOCTYPE svg PUBLIC "-//W3C//DTD SVG 1.1//EN" "http://www.w3.org/Graphics/SVG/1.1/DTD/svg11.dtd">
<!-- Creator: CorelDRAW 2019 (64-Bit) -->
<svg xmlns="http://www.w3.org/2000/svg" xml:space="preserve" width="10.5834mm" height="10.5834mm" version="1.1" style="shape-rendering:geometricPrecision; text-rendering:geometricPrecision; image-rendering:optimizeQuality; fill-rule:evenodd; clip-rule:evenodd"
viewBox="0 0 35.65 35.65"
 xmlns:xlink="http://www.w3.org/1999/xlink">
 <defs>
  <style type="text/css">
   <![CDATA[
    .fil0 {fill:#F7F7F7}
   ]]>
  </style>
 </defs>
 <g id="Слой_x0020_1">
  <metadata id="CorelCorpID_0Corel-Layer"/>
  <path class="fil0" d="M-0 17.83c0,-9.85 7.98,-17.83 17.83,-17.83 9.85,0 17.83,7.98 17.83,17.83 0,9.85 -7.98,17.83 -17.83,17.83 -9.85,0 -17.83,-7.98 -17.83,-17.83zm26.58 -7.14c0,0.89 -0.72,1.6 -1.6,1.6 -0.89,0 -1.6,-0.72 -1.6,-1.6 0,-0.89 0.72,-1.6 1.6,-1.6 0.89,0 1.6,0.72 1.6,1.6zm-8.75 0.27c-3.79,0 -6.87,3.08 -6.87,6.87 0,3.79 3.08,6.87 6.87,6.87 3.79,0 6.87,-3.08 6.87,-6.87 0,-3.79 -3.08,-6.87 -6.87,-6.87zm0 11.32c-2.46,0 -4.46,-2 -4.46,-4.46 0,-2.46 2,-4.46 4.46,-4.46 2.46,0 4.46,2 4.46,4.46 0,2.46 -2,4.46 -4.46,4.46zm0 -15.42c3.57,0 4,0.02 5.4,0.08 1.31,0.06 2.01,0.28 2.48,0.46 0.62,0.24 1.07,0.53 1.54,1 0.47,0.47 0.76,0.91 1,1.54 0.18,0.47 0.4,1.18 0.46,2.48 0.06,1.41 0.08,1.83 0.08,5.4 0,3.57 -0.02,4 -0.08,5.4 -0.06,1.31 -0.28,2.01 -0.46,2.48 -0.24,0.62 -0.53,1.07 -1,1.54 -0.47,0.47 -0.91,0.76 -1.54,1 -0.47,0.18 -1.18,0.4 -2.48,0.46 -1.41,0.06 -1.83,0.08 -5.4,0.08 -3.57,0 -4,-0.02 -5.4,-0.08 -1.31,-0.06 -2.01,-0.28 -2.48,-0.46 -0.62,-0.24 -1.07,-0.53 -1.54,-1 -0.47,-0.47 -0.76,-0.91 -1,-1.54 -0.18,-0.47 -0.4,-1.18 -0.46,-2.48 -0.06,-1.41 -0.08,-1.83 -0.08,-5.4 0,-3.57 0.02,-4 0.08,-5.4 0.06,-1.31 0.28,-2.01 0.46,-2.48 0.24,-0.62 0.53,-1.07 1,-1.54 0.47,-0.47 0.91,-0.76 1.54,-1 0.47,-0.18 1.18,-0.4 2.48,-0.46 1.41,-0.06 1.83,-0.08 5.4,-0.08zm0 -2.41c-3.63,0 -4.09,0.02 -5.51,0.08 -1.42,0.06 -2.4,0.29 -3.25,0.62 -0.88,0.34 -1.63,0.8 -2.37,1.55 -0.75,0.74 -1.2,1.49 -1.55,2.37 -0.33,0.85 -0.56,1.82 -0.62,3.24 -0.06,1.43 -0.08,1.89 -0.08,5.52 0,3.63 0.02,4.09 0.08,5.51 0.06,1.42 0.29,2.4 0.62,3.24 0.34,0.88 0.8,1.63 1.55,2.37 0.74,0.74 1.49,1.2 2.37,1.54 0.85,0.33 1.82,0.56 3.25,0.62 1.43,0.06 1.88,0.08 5.51,0.08 3.63,0 4.09,-0.02 5.51,-0.08 1.42,-0.06 2.4,-0.29 3.25,-0.62 0.88,-0.34 1.63,-0.8 2.37,-1.54 0.74,-0.74 1.2,-1.49 1.54,-2.37 0.33,-0.85 0.56,-1.82 0.62,-3.24 0.06,-1.43 0.08,-1.88 0.08,-5.51 0,-3.63 -0.02,-4.08 -0.08,-5.51 -0.06,-1.42 -0.29,-2.4 -0.62,-3.24 -0.33,-0.89 -0.78,-1.63 -1.53,-2.38 -0.74,-0.74 -1.49,-1.2 -2.37,-1.54 -0.85,-0.33 -1.82,-0.56 -3.25,-0.62 -1.43,-0.07 -1.89,-0.08 -5.52,-0.08l0 0z"/>
 </g>
</svg>
