<?xml version="1.0" encoding="UTF-8"?>
<!DOCTYPE svg PUBLIC "-//W3C//DTD SVG 1.1//EN" "http://www.w3.org/Graphics/SVG/1.1/DTD/svg11.dtd">
<!-- Creator: CorelDRAW 2019 (64-Bit) -->
<svg xmlns="http://www.w3.org/2000/svg" xml:space="preserve" width="480mm" height="297mm" version="1.1" style="shape-rendering:geometricPrecision; text-rendering:geometricPrecision; image-rendering:optimizeQuality; fill-rule:evenodd; clip-rule:evenodd"
viewBox="0 0 48000 29700"
 xmlns:xlink="http://www.w3.org/1999/xlink">
 <defs>
  <style type="text/css">
   <![CDATA[
    .fil0 {fill:#CD6326}
   ]]>
  </style>
   <clipPath id="id0">
    <rect x="28661.19" y="-611.53" width="105833.34" height="67733.34"/>
   </clipPath>
 </defs>
 <g id="Слой_x0020_1">
  <metadata id="CorelCorpID_0Corel-Layer"/>
  <g id="_2251330798368">
   <path class="fil0" d="M-1294.24 10261.31l5.54 38.05 8.13 -34.29 57.06 -201.32 32.09 0 55.68 201.32 7.92 34.86 6.15 -38.84 44.78 -197.37 38.26 0 -69.96 288.51 -34.68 0 -59.45 -210.24 -4.55 -22 -4.55 22 -61.62 210.24 -34.67 0 -69.75 -288.51 38.05 0 45.56 197.55 0.01 0.04zm338.83 90.96l-38.03 0 0 -288.51 38.03 0 0 288.51zm108.01 -31.12l136.73 0 0 31.12 -174.97 0 0 -288.51 38.24 0 0 257.39zm180.12 31.12l0 -288.51 81.44 0c25.09,0 47.29,5.54 66.58,16.63 19.29,11.09 34.17,26.89 44.59,47.36 10.56,20.47 15.92,43.99 16.06,70.54l0 18.43c0,27.22 -5.29,51.06 -15.85,71.53 -10.44,20.47 -25.44,36.2 -44.98,47.18 -19.42,10.95 -42.06,16.59 -67.96,16.84l-79.87 0 -0.01 0zm38.06 -257.21l0 226.09 40.04 0c29.32,0 52.1,-9.13 68.36,-27.36 16.38,-18.23 24.56,-44.2 24.56,-77.88l0 -16.83c0,-32.76 -7.72,-58.2 -23.17,-76.29 -15.34,-18.23 -37.12,-27.47 -65.37,-27.75l-44.38 0 -0.04 0.02zm266.52 226.09l136.73 0 0 31.12 -174.97 0 0 -288.51 38.24 0 0 257.39zm220.94 31.12l-38.05 0 0 -288.51 38.05 0 0 288.51zm228.87 -127.42l-121.09 0 0 127.42 -38.05 0 0 -288.51 178.76 0 0 31.31 -140.7 0 0 98.68 121.09 0 0 31.11 -0.01 -0.01zm228.28 -5.93l-125.03 0 0 102.26 145.25 0 0 31.12 -183.27 0 0 -288.51 181.31 0 0 31.31 -143.26 0 0 92.74 125.03 0 0 31.11 -0.03 -0.03z"/>
   <path class="fil0" d="M-2312.45 9858.36c-28.28,59.72 -34.7,177.83 -13.05,239.71 4.69,13.4 9.68,29.5 11.09,35.77 3.4,15.18 47.55,117.87 65.25,151.83 17.37,33.32 17.05,33.64 -16.29,16.68 -47.94,-24.37 -85.65,-74.46 -102.1,-135.61 -11.67,-43.34 -25.97,-44.15 -25.02,-1.41 1.64,74.57 64.67,154.28 158.68,200.65 37.29,18.39 26.5,3.79 109.81,148.79 35.51,61.78 37.22,63.77 55.17,63.77 22.3,0 25.48,-4.92 38.03,-58.55 12.7,-54.39 26.98,-101.57 42.27,-139.76l10.97 -27.4 -11.94 -16.38c-6.56,-9.01 -13.4,-16.4 -15.13,-16.43 -5.89,-0.07 -32.61,60.37 -49.39,111.66l-16.59 50.71 -19.73 -28.76c-18.25,-26.66 -75.46,-132.36 -89.6,-165.54 -50.62,-118.91 -29.92,-262.73 43.94,-305.38 26.06,-15.04 21.28,-33.52 -6.17,-23.77 -56.1,19.92 -106.93,104.92 -112.36,187.91 -1.22,18.76 -15.39,-14.35 -29.62,-69.29 -14.6,-56.37 -15.85,-165.54 -2.38,-206.2 12.11,-36.48 -9.59,-47.39 -25.88,-12.98l0.04 -0.02zm675.94 -14.41c-1.5,3.67 -0.37,19.57 2.52,35.28 15.39,83.5 11.16,158.96 -12.66,226.14 -16.59,46.76 -23.08,56.72 -23.17,35.6 -0.35,-68.06 -47.57,-150.66 -101.36,-177.32 -39.97,-19.8 -43.69,-6.1 -7.05,25.83 101.94,88.77 80.36,267.88 -55.98,464.41l-20.15 29.02 -7 -24.14c-18.78,-64.76 -25.23,-81.42 -49.65,-127.95l-26.29 -50.14 21.14 -25.6c11.62,-14.07 35.4,-34.22 52.84,-44.75 17.42,-10.53 30.87,-21.45 29.87,-24.25 -6.31,-17.7 -53.6,1.55 -97.8,39.75l-30.71 26.57 -27.22 -24.4c-29.2,-26.14 -76.42,-51.35 -91.18,-48.69 -15.76,2.84 -13.82,12.96 4.11,21.49 83.12,39.43 142.33,144.28 184.36,326.47 10.63,46 14.28,51.22 35.97,51.22 17.86,0 19.85,-2.15 47.78,-51.22 17.21,-30.24 62.03,-105.72 78.42,-132.06 6.24,-10.05 22.41,-21.23 48.91,-33.87 77.77,-37.08 138.72,-111.82 151.01,-185.12 8.69,-51.75 -11.34,-59.52 -25.46,-9.84 -17.65,62.05 -60.63,117.82 -108.77,141.09 -23.82,11.51 -24.12,9.26 -4.16,-31.86 90.41,-186.28 108.31,-316.31 57.46,-417.41 -8.71,-17.3 -21.6,-24.42 -25.78,-14.26l0 0.01z"/>
  </g>
  <g style="clip-path:url(#id0)">
   <image x="28661.19" y="-611.53" width="105833.34" height="67733.34" xlink:href="logo_or_Images\logo_or_ImgID1.png"/>
  </g>
 </g>
</svg>
