<?xml version="1.0" encoding="UTF-8"?>
<!DOCTYPE svg PUBLIC "-//W3C//DTD SVG 1.1//EN" "http://www.w3.org/Graphics/SVG/1.1/DTD/svg11.dtd">
<!-- Creator: CorelDRAW 2019 (64-Bit) -->
<svg xmlns="http://www.w3.org/2000/svg" xml:space="preserve" width="27.2825mm" height="7.41mm" version="1.1" style="shape-rendering:geometricPrecision; text-rendering:geometricPrecision; image-rendering:optimizeQuality; fill-rule:evenodd; clip-rule:evenodd"
viewBox="0 0 1180.85 320.72"
 xmlns:xlink="http://www.w3.org/1999/xlink">
 <defs>
  <style type="text/css">
   <![CDATA[
    .fil0 {fill:#F7F7F7}
    .fil1 {fill:white}
   ]]>
  </style>
 </defs>
 <g id="Слой_x0020_1">
  <metadata id="CorelCorpID_0Corel-Layer"/>
  <path class="fil0" d="M475.41 183.43l2.4 16.47 3.52 -14.84 24.7 -87.14 13.89 0 24.1 87.14 3.43 15.09 2.66 -16.81 19.38 -85.43 16.56 0 -30.28 124.88 -15.01 0 -25.73 -91 -1.97 -9.52 -1.97 9.52 -26.67 91 -15.01 0 -30.19 -124.88 16.47 0 19.72 85.51zm146.66 39.37l-16.46 0 0 -124.88 16.46 0 0 124.88zm46.75 -13.47l59.18 0 0 13.47 -75.73 0 0 -124.88 16.55 0 0 111.41zm77.96 13.47l0 -124.88 35.25 0c10.86,0 20.47,2.4 28.82,7.2 8.35,4.8 14.79,11.64 19.3,20.5 4.57,8.86 6.89,19.04 6.95,30.53l0 7.98c0,11.78 -2.29,22.1 -6.86,30.96 -4.52,8.86 -11.01,15.67 -19.47,20.42 -8.41,4.74 -18.21,7.18 -29.42,7.29l-34.57 0zm16.47 -111.33l0 97.86 17.33 0c12.69,0 22.55,-3.95 29.59,-11.84 7.09,-7.89 10.63,-19.13 10.63,-33.71l0 -7.29c0,-14.18 -3.34,-25.19 -10.03,-33.02 -6.64,-7.89 -16.07,-11.89 -28.3,-12.01l-19.21 0zm115.36 97.86l59.18 0 0 13.47 -75.73 0 0 -124.88 16.55 0 0 111.41zm95.63 13.47l-16.47 0 0 -124.88 16.47 0 0 124.88zm99.06 -55.15l-52.41 0 0 55.15 -16.47 0 0 -124.88 77.37 0 0 13.55 -60.9 0 0 42.71 52.41 0 0 13.47zm98.81 -2.57l-54.12 0 0 44.26 62.87 0 0 13.47 -79.33 0 0 -124.88 78.48 0 0 13.55 -62.01 0 0 40.14 54.12 0 0 13.47z"/>
  <path class="fil1" d="M34.7 9.02c-12.24,25.85 -15.02,76.97 -5.65,103.75 2.03,5.8 4.19,12.77 4.8,15.48 1.47,6.57 20.58,51.02 28.24,65.72 7.52,14.42 7.38,14.56 -7.05,7.22 -20.75,-10.55 -37.07,-32.23 -44.19,-58.7 -5.05,-18.76 -11.24,-19.11 -10.83,-0.61 0.71,32.28 27.99,66.78 68.68,86.85 16.14,7.96 11.47,1.64 47.53,64.4 15.37,26.74 16.11,27.6 23.88,27.6 9.65,0 11.03,-2.13 16.46,-25.34 5.5,-23.54 11.68,-43.96 18.3,-60.49l4.75 -11.86 -5.17 -7.09c-2.84,-3.9 -5.8,-7.1 -6.55,-7.11 -2.55,-0.03 -14.12,26.13 -21.38,48.33l-7.18 21.95 -8.54 -12.45c-7.9,-11.54 -32.66,-57.29 -38.78,-71.65 -21.91,-51.47 -12.95,-113.72 19.02,-132.18 11.28,-6.51 9.21,-14.51 -2.67,-10.29 -24.28,8.62 -46.28,45.41 -48.63,81.33 -0.53,8.12 -6.66,-6.21 -12.82,-29.99 -6.32,-24.4 -6.86,-71.65 -1.03,-89.25 5.24,-15.79 -4.15,-20.51 -11.2,-5.62zm292.57 -6.24c-0.65,1.59 -0.16,8.47 1.09,15.27 6.66,36.14 4.83,68.8 -5.48,97.88 -7.18,20.24 -9.99,24.55 -10.03,15.41 -0.15,-29.46 -20.59,-65.21 -43.87,-76.75 -17.3,-8.57 -18.91,-2.64 -3.05,11.18 44.12,38.42 34.78,115.95 -24.23,201.01l-8.72 12.56 -3.03 -10.45c-8.13,-28.03 -10.92,-35.24 -21.49,-55.38l-11.38 -21.7 9.15 -11.08c5.03,-6.09 15.32,-14.81 22.87,-19.37 7.54,-4.56 13.36,-9.29 12.93,-10.5 -2.73,-7.66 -23.2,0.67 -42.33,17.21l-13.29 11.5 -11.78 -10.56c-12.64,-11.32 -33.08,-22.23 -39.47,-21.08 -6.82,1.23 -5.98,5.61 1.78,9.3 35.98,17.07 61.61,62.45 79.8,141.31 4.6,19.91 6.18,22.17 15.57,22.17 7.73,0 8.59,-0.93 20.68,-22.17 7.45,-13.09 26.85,-45.76 33.94,-57.16 2.7,-4.35 9.7,-9.19 21.17,-14.66 33.66,-16.05 60.04,-48.4 65.36,-80.13 3.76,-22.4 -4.91,-25.76 -11.02,-4.26 -7.64,26.86 -26.24,51 -47.08,61.07 -10.31,4.98 -10.44,4.01 -1.8,-13.79 39.13,-80.63 46.88,-136.91 24.87,-180.67 -3.77,-7.49 -9.35,-10.57 -11.16,-6.17z"/>
 </g>
</svg>
