<?xml version="1.0" encoding="UTF-8"?>
<!DOCTYPE svg PUBLIC "-//W3C//DTD SVG 1.1//EN" "http://www.w3.org/Graphics/SVG/1.1/DTD/svg11.dtd">
<!-- Creator: CorelDRAW 2019 (64-Bit) -->
<svg xmlns="http://www.w3.org/2000/svg" xml:space="preserve" width="10.5834mm" height="10.5834mm" version="1.1" style="shape-rendering:geometricPrecision; text-rendering:geometricPrecision; image-rendering:optimizeQuality; fill-rule:evenodd; clip-rule:evenodd"
viewBox="0 0 37.05 37.05"
 xmlns:xlink="http://www.w3.org/1999/xlink">
 <defs>
  <style type="text/css">
   <![CDATA[
    .fil0 {fill:#F7F7F7}
   ]]>
  </style>
 </defs>
 <g id="Слой_x0020_1">
  <metadata id="CorelCorpID_0Corel-Layer"/>
  <path class="fil0" d="M-0 18.53c0,-10.23 8.29,-18.53 18.53,-18.53 10.23,0 18.53,8.29 18.53,18.53 0,10.23 -8.29,18.53 -18.53,18.53 -10.23,0 -18.53,-8.29 -18.53,-18.53zm19.28 -11.16c-6.53,0 -9.82,4.68 -9.82,8.59 0,2.37 0.9,4.47 2.81,5.25 0.32,0.13 0.6,0.01 0.69,-0.34 0.06,-0.24 0.21,-0.85 0.28,-1.11 0.09,-0.34 0.06,-0.46 -0.2,-0.76 -0.55,-0.65 -0.91,-1.5 -0.91,-2.7 0,-3.47 2.6,-6.58 6.77,-6.58 3.69,0 5.72,2.26 5.72,5.27 0,3.96 -1.76,7.31 -4.36,7.31 -1.44,0 -2.51,-1.19 -2.17,-2.65 0.41,-1.74 1.21,-3.62 1.21,-4.88 0,-1.13 -0.61,-2.06 -1.85,-2.06 -1.47,0 -2.65,1.52 -2.65,3.56 0,1.3 0.44,2.18 0.44,2.18 0,0 -1.51,6.37 -1.77,7.49 -0.52,2.22 -0.08,4.95 -0.04,5.23 0.02,0.16 0.23,0.2 0.32,0.08 0.14,-0.18 1.89,-2.34 2.48,-4.5 0.17,-0.61 0.97,-3.77 0.97,-3.77 0.48,0.91 1.87,1.71 3.36,1.71 4.42,0 7.42,-4.03 7.42,-9.42 -0,-4.08 -3.46,-7.87 -8.71,-7.87l-0 0z"/>
 </g>
</svg>
