<?xml version="1.0" encoding="UTF-8"?>
<!DOCTYPE svg PUBLIC "-//W3C//DTD SVG 1.1//EN" "http://www.w3.org/Graphics/SVG/1.1/DTD/svg11.dtd">
<!-- Creator: CorelDRAW 2019 (64-Bit) -->
<svg xmlns="http://www.w3.org/2000/svg" xml:space="preserve" width="10.5834mm" height="10.5834mm" version="1.1" style="shape-rendering:geometricPrecision; text-rendering:geometricPrecision; image-rendering:optimizeQuality; fill-rule:evenodd; clip-rule:evenodd"
viewBox="0 0 29.31 29.31"
 xmlns:xlink="http://www.w3.org/1999/xlink">
 <defs>
  <style type="text/css">
   <![CDATA[
    .fil0 {fill:#F7F7F7}
   ]]>
  </style>
 </defs>
 <g id="Слой_x0020_1">
  <metadata id="CorelCorpID_0Corel-Layer"/>
  <path class="fil0" d="M-0 14.65c0,-8.09 6.56,-14.65 14.65,-14.65 8.09,0 14.65,6.56 14.65,14.65 0,8.09 -6.56,14.65 -14.65,14.65 -8.09,0 -14.65,-6.56 -14.65,-14.65zm20.83 -8.24l-16.55 6.73c-0.67,0.31 -0.89,0.94 -0.16,1.28l4.25 1.42 10.27 -6.69c0.56,-0.42 1.13,-0.31 0.64,0.15l-8.82 8.41 -0.28 3.56c0.26,0.55 0.73,0.55 1.03,0.28l2.44 -2.43 4.18 3.3c0.97,0.61 1.5,0.21 1.71,-0.9l2.74 -13.67c0.28,-1.37 -0.2,-1.97 -1.44,-1.44z"/>
 </g>
</svg>
